<svg width="360" height="800" viewBox="0 0 360 800" fill="none" xmlns="http://www.w3.org/2000/svg">
<g clip-path="url(#clip0_1218_915)">
<rect width="360" height="800" fill="#FFDBFB"/>
<path d="M360 0H330L345 15L360 0Z" fill="#F2A8E2"/>
<path d="M240 0H210L225 15L240 0Z" fill="#F2A8E2"/>
<path d="M120 0H90L105 15L120 0Z" fill="#F2A8E2"/>
<path d="M180 60H150L165 75L180 60Z" fill="#F2A8E2"/>
<path d="M300 0H270L285 15L300 0Z" fill="#F2A8E2"/>
<path d="M180 0H150L165 15L180 0Z" fill="#F2A8E2"/>
<path d="M60 0H30L45 15L60 0Z" fill="#F2A8E2"/>
<path d="M120 60H90L105 75L120 60Z" fill="#F2A8E2"/>
<path d="M330 30H300L315 45L330 30Z" fill="#F2A8E2"/>
<path d="M210 30H180L195 45L210 30Z" fill="#F2A8E2"/>
<path d="M270 90H240L255 105L270 90Z" fill="#F2A8E2"/>
<path d="M150 30H120L135 45L150 30Z" fill="#F2A8E2"/>
<path d="M270 30H240L255 45L270 30Z" fill="#F2A8E2"/>
<path d="M330 0H300L315 15L330 0Z" fill="#F2A8E2"/>
<path d="M210 0H180L195 15L210 0Z" fill="#F2A8E2"/>
<path d="M270 60H240L255 75L270 60Z" fill="#F2A8E2"/>
<path d="M90 0H60L75 15L90 0Z" fill="#F2A8E2"/>
<path d="M270 0H240L255 15L270 0Z" fill="#F2A8E2"/>
<path d="M30 0H0L15 15L30 0Z" fill="#F2A8E2"/>
<path d="M90 60H60L75 75L90 60Z" fill="#F2A8E2"/>
<path d="M30 60H0L15 75L30 60Z" fill="#F2A8E2"/>
<path d="M180 30H150L165 45L180 30Z" fill="#F2A8E2"/>
<path d="M240 90H210L225 105L240 90Z" fill="#F2A8E2"/>
<path d="M60 30H30L45 45L60 30Z" fill="#F2A8E2"/>
<path d="M240 30H210L225 45L240 30Z" fill="#F2A8E2"/>
<path d="M180 90H150L165 105L180 90Z" fill="#F2A8E2"/>
<path d="M345 15H315L330 30L345 15Z" fill="#F2A8E2"/>
<path d="M285 75H255L270 90L285 75Z" fill="#F2A8E2"/>
<path d="M330 60H300L315 75L330 60Z" fill="#F2A8E2"/>
<path d="M360 60H330L345 75L360 60Z" fill="#F2A8E2"/>
<path d="M345 75H315L330 90L345 75Z" fill="#F2A8E2"/>
<path d="M330 90H300L315 105L330 90Z" fill="#F2A8E2"/>
<path d="M105 15H75L90 30L105 15Z" fill="#F2A8E2"/>
<path d="M165 75H135L150 90L165 75Z" fill="#F2A8E2"/>
<path d="M195 15H165L180 30L195 15Z" fill="#F2A8E2"/>
<path d="M135 75H105L120 90L135 75Z" fill="#F2A8E2"/>
<path d="M285 15H255L270 30L285 15Z" fill="#F2A8E2"/>
<path d="M225 75H195L210 90L225 75Z" fill="#F2A8E2"/>
<path d="M45 15H15L30 30L45 15Z" fill="#F2A8E2"/>
<path d="M105 75H75L90 90L105 75Z" fill="#F2A8E2"/>
<path d="M45 75H15L30 90L45 75Z" fill="#F2A8E2"/>
<path d="M315 45H285L300 60L315 45Z" fill="#F2A8E2"/>
<path d="M255 105H225L240 120L255 105Z" fill="#F2A8E2"/>
<path d="M75 45H45L60 60L75 45Z" fill="#F2A8E2"/>
<path d="M45 45H15L30 60L45 45Z" fill="#F2A8E2"/>
<path d="M30 30H0L15 45L30 30Z" fill="#F2A8E2"/>
<path d="M135 45H105L120 60L135 45Z" fill="#F2A8E2"/>
<path d="M255 45H225L240 60L255 45Z" fill="#F2A8E2"/>
<path d="M195 105H165L180 120L195 105Z" fill="#F2A8E2"/>
<path d="M0 800H30L15 785L0 800Z" fill="#F2A8E2"/>
<path d="M135 785H165L150 770L135 785Z" fill="#F2A8E2"/>
<path d="M240 800H270L255 785L240 800Z" fill="#F2A8E2"/>
<path d="M180 740H210L195 725L180 740Z" fill="#F2A8E2"/>
<path d="M60 800H90L75 785L60 800Z" fill="#F2A8E2"/>
<path d="M180 800H210L195 785L180 800Z" fill="#F2A8E2"/>
<path d="M300 800H330L315 785L300 800Z" fill="#F2A8E2"/>
<path d="M240 740H270L255 725L240 740Z" fill="#F2A8E2"/>
<path d="M30 770H60L45 755L30 770Z" fill="#F2A8E2"/>
<path d="M150 770H180L165 755L150 770Z" fill="#F2A8E2"/>
<path d="M150 740H180L165 725L150 740Z" fill="#F2A8E2"/>
<path d="M240 710H270L255 695L240 710Z" fill="#F2A8E2"/>
<path d="M255 695H285L270 680L255 695Z" fill="#F2A8E2"/>
<path d="M210 770H240L225 755L210 770Z" fill="#F2A8E2"/>
<path d="M225 785H255L240 770L225 785Z" fill="#F2A8E2"/>
<path d="M90 770H120L105 755L90 770Z" fill="#F2A8E2"/>
<path d="M30 800H60L45 785L30 800Z" fill="#F2A8E2"/>
<path d="M150 800H180L165 785L150 800Z" fill="#F2A8E2"/>
<path d="M90 740H120L105 725L90 740Z" fill="#F2A8E2"/>
<path d="M270 800H300L285 785L270 800Z" fill="#F2A8E2"/>
<path d="M90 800H120L105 785L90 800Z" fill="#F2A8E2"/>
<path d="M330 800H360L345 785L330 800Z" fill="#F2A8E2"/>
<path d="M270 740H300L285 725L270 740Z" fill="#F2A8E2"/>
<path d="M330 740H360L345 725L330 740Z" fill="#F2A8E2"/>
<path d="M180 770H210L195 755L180 770Z" fill="#F2A8E2"/>
<path d="M120 710H150L135 695L120 710Z" fill="#F2A8E2"/>
<path d="M300 770H330L315 755L300 770Z" fill="#F2A8E2"/>
<path d="M120 770H150L135 755L120 770Z" fill="#F2A8E2"/>
<path d="M120 740H150L135 725L120 740Z" fill="#F2A8E2"/>
<path d="M180 710H210L195 695L180 710Z" fill="#F2A8E2"/>
<path d="M15 785H45L30 770L15 785Z" fill="#F2A8E2"/>
<path d="M75 725H105L90 710L75 725Z" fill="#F2A8E2"/>
<path d="M30 740H60L45 725L30 740Z" fill="#F2A8E2"/>
<path d="M0 770H30L15 755L0 770Z" fill="#F2A8E2"/>
<path d="M15 725H45L30 710L15 725Z" fill="#F2A8E2"/>
<path d="M30 710H60L45 695L30 710Z" fill="#F2A8E2"/>
<path d="M255 770H285L270 755L255 770Z" fill="#F2A8E2"/>
<path d="M195 725H225L210 710L195 725Z" fill="#F2A8E2"/>
<path d="M165 755H195L180 740L165 755Z" fill="#F2A8E2"/>
<path d="M225 725H255L240 710L225 725Z" fill="#F2A8E2"/>
<path d="M75 785H105L90 770L75 785Z" fill="#F2A8E2"/>
<path d="M135 725H165L150 710L135 725Z" fill="#F2A8E2"/>
<path d="M315 785H345L330 770L315 785Z" fill="#F2A8E2"/>
<path d="M255 725H285L270 710L255 725Z" fill="#F2A8E2"/>
<path d="M315 725H345L330 710L315 725Z" fill="#F2A8E2"/>
<path d="M45 755H75L60 740L45 755Z" fill="#F2A8E2"/>
<path d="M105 695H135L120 680L105 695Z" fill="#F2A8E2"/>
<path d="M300 710H330L315 695L300 710Z" fill="#F2A8E2"/>
<path d="M315 755H345L330 740L315 755Z" fill="#F2A8E2"/>
<path d="M330 770H360L345 755L330 770Z" fill="#F2A8E2"/>
<path d="M225 755H255L240 740L225 755Z" fill="#F2A8E2"/>
<path d="M105 755H135L120 740L105 755Z" fill="#F2A8E2"/>
<path d="M165 695H195L180 680L165 695Z" fill="#F2A8E2"/>
</g>
<defs>
<clipPath id="clip0_1218_915">
<rect width="360" height="800" fill="white"/>
</clipPath>
</defs>
</svg>
